<svg width="68" height="70" viewBox="0 0 68 70" fill="none" xmlns="http://www.w3.org/2000/svg">
<path fill-rule="evenodd" clip-rule="evenodd" d="M34.006 0L0.0209961 33.985L2.9012 36.8571L34.006 5.75229L65.1108 36.8571L67.9869 33.985L34.006 0ZM56.3802 37.4551V65.9319H44.1718V45.5913H23.8353V65.9319H11.631V37.4551H7.55879V70H60.4483V37.4551H56.3802ZM40.1078 49.6595V65.936H27.9034V49.6595H40.1078ZM34.0048 25.2512C36.2504 25.2512 38.0729 27.0737 38.0729 29.3193C38.0729 31.5649 36.2504 33.3874 34.0048 33.3874C31.7592 33.3874 29.9367 31.5649 29.9367 29.3193C29.9367 27.0737 31.7592 25.2512 34.0048 25.2512ZM42.141 29.3193C42.141 24.8322 38.4919 21.1831 34.0048 21.1831C29.5176 21.1831 25.8686 24.8322 25.8686 29.3193C25.8686 33.8064 29.5177 37.4555 34.0048 37.4555C38.4919 37.4555 42.141 33.8064 42.141 29.3193Z" fill="white"/>
</svg>
